{
  "source": "C:\\Users\\Peter\\Desktop\\stuff\\MIUN\\quantitative_research\\video_compression\\videos\\HEVC_CLASS_B\\Cactus_1920x1080_50.y4m",
  "output": "C:\\Users\\Peter\\Desktop\\stuff\\MIUN\\quantitative_research\\video_compression\\compressed_videos\\HEVC_CLASS_B\\av1\\1.5\\Cactus_1920x1080_50_av1.mkv",
  "codec": "av1",
  "ok": "Input #0, yuv4mpegpipe, from 'C:\\Users\\Peter\\Desktop\\stuff\\MIUN\\quantitative_research\\video_compression\\videos\\HEVC_CLASS_B\\Cactus_1920x1080_50.y4m':\n  Duration: 00:00:10.00, start: 0.000000, bitrate: 1244162 kb/s\n  Stream #0:0: Video: rawvideo (I420 / 0x30323449), yuv420p(progressive), 1920x1080, 50 fps, 50 tbr, 50 tbn\n[out#0/matroska @ 0000026e50828ec0] Codec AVOption b:a (set bitrate (in bits/s)) has not been used for any stream. The most likely reason is either wrong type (e.g. a video option with no video streams) or that it is a private option of some decoder which was not actually used for any stream.\nStream mapping:\n  Stream #0:0 -> #0:0 (rawvideo (native) -> av1 (libsvtav1))\nPress [q] to stop, [?] for help\nSvt[info]: -------------------------------------------\nSvt[info]: SVT [version]:\tSVT-AV1 Encoder Lib v3.1.0-19-g6ecfe8ec\nSvt[info]: SVT [build]  :\tGCC 15.2.0\t 64 bit\nSvt[info]: LIB Build date: Aug 17 2025 11:37:13\nSvt[info]: -------------------------------------------\n[libsvtav1 @ 0000026e5082c080] Specified chroma sample location center is unsupported on the AV1 bit stream level. Usage of a container that allows passing this information - such as Matroska - is recommended.\nSvt[info]: Level of Parallelism: 5\nSvt[info]: Number of PPCS 93\nSvt[info]: [asm level on system : up to avx2]\nSvt[info]: [asm level selected : up to avx2]\nSvt[info]: -------------------------------------------\nSvt[info]: SVT [config]: main profile\ttier (auto)\tlevel (auto)\nSvt[info]: SVT [config]: width / height / fps numerator / fps denominator \t\t: 1920 / 1080 / 50 / 1\nSvt[info]: SVT [config]: bit-depth / color format \t\t\t\t\t: 8 / YUV420\nSvt[info]: SVT [config]: preset / tune / pred struct \t\t\t\t\t: 4 / PSNR / random access\nSvt[info]: SVT [config]: gop size / mini-gop size / key-frame type \t\t\t: 321 / 16 / key frame\nSvt[info]: SVT [config]: BRC mode / target bitrate (kbps)\t\t\t\t: VBR / 1500 \nSvt[info]: SVT [config]: AQ mode / Variance Boost \t\t\t\t\t: 2 / 0\nSvt[info]: SVT [config]: sharpness / luminance-based QP bias \t\t\t\t: 0 / 0\nSvt[info]: SVT [config]: QP scale compress strength \t\t\t\t\t: 0\nSvt[info]: -------------------------------------------\nOutput #0, matroska, to 'C:\\Users\\Peter\\Desktop\\stuff\\MIUN\\quantitative_research\\video_compression\\compressed_videos\\HEVC_CLASS_B\\av1\\1.5\\Cactus_1920x1080_50_av1.mkv':\n  Metadata:\n    encoder         : Lavf62.3.100\n  Stream #0:0: Video: av1 (AV01 / 0x31305641), yuv420p(tv, progressive), 1920x1080, q=2-31, 1500 kb/s, 50 fps, 1k tbn\n    Metadata:\n      encoder         : Lavc62.11.100 libsvtav1\n    Side data:\n      cpb: bitrate max/min/avg: 0/0/1500000 buffer size: 1500000 vbv_delay: N/A\nframe=    0 fps=0.0 q=0.0 size=       0KiB time=N/A bitrate=N/A speed=N/A elapsed=0:00:04.79    \nframe=    0 fps=0.0 q=0.0 size=       0KiB time=N/A bitrate=N/A speed=N/A elapsed=0:00:05.31    \nframe=    0 fps=0.0 q=0.0 size=       0KiB time=N/A bitrate=N/A speed=N/A elapsed=0:00:05.83    \nframe=    0 fps=0.0 q=0.0 size=       0KiB time=N/A bitrate=N/A speed=N/A elapsed=0:00:06.35    \nframe=    0 fps=0.0 q=0.0 size=       0KiB time=N/A bitrate=N/A speed=N/A elapsed=0:00:06.86    \nframe=    0 fps=0.0 q=0.0 size=       0KiB time=N/A bitrate=N/A speed=N/A elapsed=0:00:07.38    \nframe=    0 fps=0.0 q=0.0 size=       0KiB time=N/A bitrate=N/A speed=N/A elapsed=0:00:07.89    \nframe=    0 fps=0.0 q=0.0 size=       0KiB time=N/A bitrate=N/A speed=N/A elapsed=0:00:08.40    \nframe=    0 fps=0.0 q=0.0 size=       0KiB time=N/A bitrate=N/A speed=N/A elapsed=0:00:08.92    \nframe=    0 fps=0.0 q=0.0 size=       0KiB time=N/A bitrate=N/A speed=N/A elapsed=0:00:09.44    \nframe=    0 fps=0.0 q=0.0 size=       0KiB time=N/A bitrate=N/A speed=N/A elapsed=0:00:09.95    \nframe=    0 fps=0.0 q=0.0 size=       0KiB time=N/A bitrate=N/A speed=N/A elapsed=0:00:10.47    \nframe=    0 fps=0.0 q=0.0 size=       0KiB time=N/A bitrate=N/A speed=N/A elapsed=0:00:10.98    \nframe=    0 fps=0.0 q=0.0 size=       0KiB time=N/A bitrate=N/A speed=N/A elapsed=0:00:11.49    \nframe=    0 fps=0.0 q=0.0 size=       0KiB time=N/A bitrate=N/A speed=N/A elapsed=0:00:12.01    \nframe=    0 fps=0.0 q=0.0 size=       0KiB time=N/A bitrate=N/A speed=N/A elapsed=0:00:12.53    \nframe=    0 fps=0.0 q=0.0 size=       0KiB time=N/A bitrate=N/A speed=N/A elapsed=0:00:13.04    \nframe=    0 fps=0.0 q=0.0 size=       0KiB time=N/A bitrate=N/A speed=N/A elapsed=0:00:13.57    \nframe=    0 fps=0.0 q=0.0 size=       0KiB time=N/A bitrate=N/A speed=N/A elapsed=0:00:14.10    \nframe=    0 fps=0.0 q=0.0 size=       0KiB time=N/A bitrate=N/A speed=N/A elapsed=0:00:14.61    \nframe=    0 fps=0.0 q=0.0 size=       0KiB time=N/A bitrate=N/A speed=N/A elapsed=0:00:15.12    \nframe=    0 fps=0.0 q=0.0 size=       0KiB time=N/A bitrate=N/A speed=N/A elapsed=0:00:15.64    \nframe=    0 fps=0.0 q=0.0 size=       0KiB time=N/A bitrate=N/A speed=N/A elapsed=0:00:16.15    \nframe=    0 fps=0.0 q=0.0 size=       0KiB time=N/A bitrate=N/A speed=N/A elapsed=0:00:16.68    \nframe=    0 fps=0.0 q=0.0 size=       0KiB time=N/A bitrate=N/A speed=N/A elapsed=0:00:17.19    \nframe=    0 fps=0.0 q=0.0 size=       0KiB time=N/A bitrate=N/A speed=N/A elapsed=0:00:17.71    \nframe=    0 fps=0.0 q=0.0 size=       0KiB time=N/A bitrate=N/A speed=N/A elapsed=0:00:18.21    \nframe=    1 fps=0.1 q=28.0 size=       1KiB time=00:00:00.00 bitrate=N/A speed=   0x elapsed=0:00:18.73    \nframe=    1 fps=0.1 q=28.0 size=       1KiB time=00:00:00.00 bitrate=N/A speed=   0x elapsed=0:00:19.25    \nframe=    1 fps=0.1 q=28.0 size=       1KiB time=00:00:00.00 bitrate=N/A speed=   0x elapsed=0:00:19.77    \nframe=    1 fps=0.0 q=28.0 size=       1KiB time=00:00:00.00 bitrate=N/A speed=   0x elapsed=0:00:20.28    \nframe=    1 fps=0.0 q=28.0 size=       1KiB time=00:00:00.00 bitrate=N/A speed=   0x elapsed=0:00:20.79    \nframe=    1 fps=0.0 q=28.0 size=       1KiB time=00:00:00.00 bitrate=N/A speed=   0x elapsed=0:00:21.31    \nframe=    1 fps=0.0 q=28.0 size=       1KiB time=00:00:00.00 bitrate=N/A speed=   0x elapsed=0:00:21.83    \nframe=    1 fps=0.0 q=28.0 size=       1KiB time=00:00:00.00 bitrate=N/A speed=   0x elapsed=0:00:22.35    \nframe=    1 fps=0.0 q=28.0 size=       1KiB time=00:00:00.00 bitrate=N/A speed=   0x elapsed=0:00:22.86    \nframe=    1 fps=0.0 q=28.0 size=       1KiB time=00:00:00.00 bitrate=N/A speed=   0x elapsed=0:00:23.37    \nframe=    1 fps=0.0 q=28.0 size=       1KiB time=00:00:00.00 bitrate=N/A speed=   0x elapsed=0:00:23.88    \nframe=    1 fps=0.0 q=28.0 size=       1KiB time=00:00:00.00 bitrate=N/A speed=   0x elapsed=0:00:24.40    \nframe=    1 fps=0.0 q=28.0 size=       1KiB time=00:00:00.00 bitrate=N/A speed=   0x elapsed=0:00:24.92    \nframe=    1 fps=0.0 q=28.0 size=       1KiB time=00:00:00.00 bitrate=N/A speed=   0x elapsed=0:00:25.44    \nframe=    3 fps=0.1 q=55.0 size=       1KiB time=00:00:00.04 bitrate= 112.4kbits/s speed=0.00154x elapsed=0:00:25.96    \nframe=    4 fps=0.2 q=58.0 size=       1KiB time=00:00:00.06 bitrate=  74.9kbits/s speed=0.00227x elapsed=0:00:26.46    \nframe=    6 fps=0.2 q=54.0 size=       1KiB time=00:00:00.10 bitrate=  45.0kbits/s speed=0.00371x elapsed=0:00:26.98    \nframe=    7 fps=0.3 q=54.0 size=       1KiB time=00:00:00.12 bitrate=  37.5kbits/s speed=0.00436x elapsed=0:00:27.50    \nframe=    7 fps=0.2 q=54.0 size=       1KiB time=00:00:00.12 bitrate=  37.5kbits/s speed=0.00428x elapsed=0:00:28.02    \nframe=    9 fps=0.3 q=50.0 size=       1KiB time=00:00:00.16 bitrate=  28.1kbits/s speed=0.00561x elapsed=0:00:28.53    \nframe=   10 fps=0.3 q=53.0 size=       1KiB time=00:00:00.18 bitrate=  25.0kbits/s speed=0.0062x elapsed=0:00:29.05    \nframe=   11 fps=0.4 q=54.0 size=       1KiB time=00:00:00.20 bitrate=  22.5kbits/s speed=0.00676x elapsed=0:00:29.56    \nframe=   12 fps=0.4 q=53.0 size=       1KiB time=00:00:00.22 bitrate=  20.4kbits/s speed=0.00731x elapsed=0:00:30.07    \nframe=   14 fps=0.5 q=52.0 size=       1KiB time=00:00:00.26 bitrate=  17.3kbits/s speed=0.0085x elapsed=0:00:30.59    \nframe=   15 fps=0.5 q=54.0 size=       1KiB time=00:00:00.28 bitrate=  16.1kbits/s speed=0.009x elapsed=0:00:31.10    \nframe=   16 fps=0.5 q=52.0 size=       1KiB time=00:00:00.30 bitrate=  15.0kbits/s speed=0.00948x elapsed=0:00:31.63    \nframe=   17 fps=0.5 q=38.0 size=       1KiB time=00:00:00.32 bitrate=  14.1kbits/s speed=0.00996x elapsed=0:00:32.13    \nframe=   19 fps=0.6 q=53.0 size=       1KiB time=00:00:00.36 bitrate=  12.5kbits/s speed=0.011x elapsed=0:00:32.66    \nframe=   20 fps=0.6 q=50.0 size=       1KiB time=00:00:00.38 bitrate=  11.8kbits/s speed=0.0115x elapsed=0:00:33.17    \nframe=   23 fps=0.7 q=53.0 size=       1KiB time=00:00:00.44 bitrate=  10.2kbits/s speed=0.0131x elapsed=0:00:33.69    \nframe=   23 fps=0.7 q=53.0 size=       1KiB time=00:00:00.44 bitrate=  10.2kbits/s speed=0.0129x elapsed=0:00:34.20    \nframe=   24 fps=0.7 q=49.0 size=       1KiB time=00:00:00.46 bitrate=   9.8kbits/s speed=0.0132x elapsed=0:00:34.72    \nframe=   27 fps=0.8 q=53.0 size=       1KiB time=00:00:00.52 bitrate=   8.6kbits/s speed=0.0147x elapsed=0:00:35.36    \nframe=   28 fps=0.8 q=49.0 size=       1KiB time=00:00:00.54 bitrate=   8.3kbits/s speed=0.015x elapsed=0:00:35.91    \nframe=   29 fps=0.8 q=50.0 size=       1KiB time=00:00:00.56 bitrate=   8.0kbits/s speed=0.0153x elapsed=0:00:36.52    \nframe=   30 fps=0.8 q=48.0 size=       1KiB time=00:00:00.58 bitrate=   7.8kbits/s speed=0.0156x elapsed=0:00:37.16    \nframe=   33 fps=0.9 q=37.0 size=       1KiB time=00:00:00.64 bitrate=   7.0kbits/s speed=0.0169x elapsed=0:00:37.77    \nframe=   35 fps=0.9 q=52.0 size=       1KiB time=00:00:00.68 bitrate=   6.6kbits/s speed=0.0177x elapsed=0:00:38.35    \nframe=   35 fps=0.9 q=52.0 size=       1KiB time=00:00:00.68 bitrate=   6.6kbits/s speed=0.0174x elapsed=0:00:38.99    \nframe=   36 fps=0.9 q=47.0 size=       1KiB time=00:00:00.70 bitrate=   6.4kbits/s speed=0.0177x elapsed=0:00:39.52    \nframe=   37 fps=0.9 q=52.0 size=       1KiB time=00:00:00.72 bitrate=   6.2kbits/s speed=0.018x elapsed=0:00:40.03    \nframe=   38 fps=0.9 q=46.0 size=       1KiB time=00:00:00.74 bitrate=   6.1kbits/s speed=0.0182x elapsed=0:00:40.55    \nframe=   39 fps=0.9 q=52.0 size=       1KiB time=00:00:00.76 bitrate=   5.9kbits/s speed=0.0185x elapsed=0:00:41.07    \nframe=   40 fps=1.0 q=48.0 size=       1KiB time=00:00:00.78 bitrate=   5.8kbits/s speed=0.0188x elapsed=0:00:41.58    \nframe=   41 fps=1.0 q=49.0 size=       1KiB time=00:00:00.80 bitrate=   5.6kbits/s speed=0.019x elapsed=0:00:42.10    \nframe=   41 fps=1.0 q=49.0 size=       1KiB time=00:00:00.80 bitrate=   5.6kbits/s speed=0.0188x elapsed=0:00:42.62    \nframe=   44 fps=1.0 q=47.0 size=       1KiB time=00:00:00.86 bitrate=   5.2kbits/s speed=0.0199x elapsed=0:00:43.14    \nframe=   45 fps=1.0 q=52.0 size=       1KiB time=00:00:00.88 bitrate=   5.1kbits/s speed=0.0202x elapsed=0:00:43.66    \nframe=   46 fps=1.0 q=47.0 size=       1KiB time=00:00:00.90 bitrate=   5.0kbits/s speed=0.0204x elapsed=0:00:44.17    \nframe=   48 fps=1.1 q=49.0 size=       1KiB time=00:00:00.94 bitrate=   4.8kbits/s speed=0.021x elapsed=0:00:44.69    \nframe=   48 fps=1.1 q=49.0 size=       1KiB time=00:00:00.94 bitrate=   4.8kbits/s speed=0.0208x elapsed=0:00:45.20    \nframe=   49 fps=1.1 q=33.0 size=       1KiB time=00:00:00.96 bitrate=   4.7kbits/s speed=0.021x elapsed=0:00:45.71    \nframe=   49 fps=1.1 q=33.0 size=       1KiB time=00:00:00.96 bitrate=   4.7kbits/s speed=0.0208x elapsed=0:00:46.24    \nframe=   51 fps=1.1 q=52.0 size=       1KiB time=00:00:01.00 bitrate=   4.5kbits/s speed=0.0214x elapsed=0:00:46.77    \nframe=   51 fps=1.1 q=52.0 size=       1KiB time=00:00:01.00 bitrate=   4.5kbits/s speed=0.0211x elapsed=0:00:47.28    \nframe=   52 fps=1.1 q=49.0 size=       1KiB time=00:00:01.02 bitrate=   4.4kbits/s speed=0.0213x elapsed=0:00:47.80    \nframe=   53 fps=1.1 q=52.0 size=       1KiB time=00:00:01.04 bitrate=   4.3kbits/s speed=0.0215x elapsed=0:00:48.30    \nframe=   55 fps=1.1 q=52.0 size=       1KiB time=00:00:01.08 bitrate=   4.2kbits/s speed=0.0221x elapsed=0:00:48.83    \nframe=   55 fps=1.1 q=52.0 size=       1KiB time=00:00:01.08 bitrate=   4.2kbits/s speed=0.0219x elapsed=0:00:49.34    \nframe=   56 fps=1.1 q=50.0 size=       1KiB time=00:00:01.10 bitrate=   4.1kbits/s speed=0.0221x elapsed=0:00:49.86    \nframe=   57 fps=1.1 q=48.0 size=       1KiB time=00:00:01.12 bitrate=   4.0kbits/s speed=0.0222x elapsed=0:00:50.37    \nframe=   58 fps=1.1 q=50.0 size=       1KiB time=00:00:01.14 bitrate=   3.9kbits/s speed=0.0224x elapsed=0:00:50.88    \nframe=   60 fps=1.2 q=50.0 size=       1KiB time=00:00:01.18 bitrate=   3.8kbits/s speed=0.023x elapsed=0:00:51.41    \nframe=   61 fps=1.2 q=50.0 size=       1KiB time=00:00:01.20 bitrate=   3.7kbits/s speed=0.0231x elapsed=0:00:51.93    \nframe=   62 fps=1.2 q=49.0 size=       1KiB time=00:00:01.22 bitrate=   3.7kbits/s speed=0.0233x elapsed=0:00:52.44    \nframe=   64 fps=1.2 q=49.0 size=       1KiB time=00:00:01.26 bitrate=   3.6kbits/s speed=0.0238x elapsed=0:00:52.96    \nframe=   65 fps=1.2 q=33.0 size=       1KiB time=00:00:01.28 bitrate=   3.5kbits/s speed=0.0239x elapsed=0:00:53.46    \nframe=   66 fps=1.2 q=48.0 size=       1KiB time=00:00:01.30 bitrate=   3.5kbits/s speed=0.0241x elapsed=0:00:53.98    \nframe=   68 fps=1.2 q=48.0 size=       1KiB time=00:00:01.34 bitrate=   3.4kbits/s speed=0.0246x elapsed=0:00:54.50    \nframe=   69 fps=1.3 q=51.0 size=       1KiB time=00:00:01.36 bitrate=   3.3kbits/s speed=0.0247x elapsed=0:00:55.02    \nframe=   70 fps=1.3 q=48.0 size=       1KiB time=00:00:01.38 bitrate=   3.3kbits/s speed=0.0248x elapsed=0:00:55.53    \nframe=   70 fps=1.2 q=48.0 size=       1KiB time=00:00:01.38 bitrate=   3.3kbits/s speed=0.0246x elapsed=0:00:56.04    \nframe=   72 fps=1.3 q=48.0 size=       1KiB time=00:00:01.42 bitrate=   3.2kbits/s speed=0.0251x elapsed=0:00:56.56    \nframe=   72 fps=1.3 q=48.0 size=       1KiB time=00:00:01.42 bitrate=   3.2kbits/s speed=0.0249x elapsed=0:00:57.07    \nframe=   73 fps=1.3 q=48.0 size=       1KiB time=00:00:01.44 bitrate=   3.1kbits/s speed=0.025x elapsed=0:00:57.59    \nframe=   75 fps=1.3 q=52.0 size=       1KiB time=00:00:01.48 bitrate=   3.0kbits/s speed=0.0255x elapsed=0:00:58.11    \nframe=   76 fps=1.3 q=50.0 size=       1KiB time=00:00:01.50 bitrate=   3.0kbits/s speed=0.0256x elapsed=0:00:58.62    \nframe=   77 fps=1.3 q=51.0 size=       1KiB time=00:00:01.52 bitrate=   3.0kbits/s speed=0.0257x elapsed=0:00:59.14    \nframe=   78 fps=1.3 q=50.0 size=       1KiB time=00:00:01.54 bitrate=   2.9kbits/s speed=0.0258x elapsed=0:00:59.66    \nframe=   80 fps=1.3 q=50.0 size=       1KiB time=00:00:01.58 bitrate=   2.8kbits/s speed=0.0263x elapsed=0:01:00.18    \nframe=   80 fps=1.3 q=50.0 size=       1KiB time=00:00:01.58 bitrate=   2.8kbits/s speed=0.026x elapsed=0:01:00.70    \nframe=   81 fps=1.3 q=34.0 size=       1KiB time=00:00:01.60 bitrate=   2.8kbits/s speed=0.0261x elapsed=0:01:01.21    \nframe=   82 fps=1.3 q=50.0 size=       1KiB time=00:00:01.62 bitrate=   2.8kbits/s speed=0.0262x elapsed=0:01:01.74    \nframe=   83 fps=1.3 q=52.0 size=       1KiB time=00:00:01.64 bitrate=   2.7kbits/s speed=0.0263x elapsed=0:01:02.24    \nframe=   84 fps=1.3 q=50.0 size=       1KiB time=00:00:01.66 bitrate=   2.7kbits/s speed=0.0264x elapsed=0:01:02.77    \nframe=   85 fps=1.3 q=52.0 size=       1KiB time=00:00:01.68 bitrate=   2.7kbits/s speed=0.0265x elapsed=0:01:03.27    \nframe=   86 fps=1.3 q=50.0 size=       1KiB time=00:00:01.70 bitrate=   2.6kbits/s speed=0.0266x elapsed=0:01:03.80    \nframe=   87 fps=1.4 q=52.0 size=       1KiB time=00:00:01.72 bitrate=   2.6kbits/s speed=0.0267x elapsed=0:01:04.31    \nframe=   88 fps=1.4 q=50.0 size=       1KiB time=00:00:01.74 bitrate=   2.6kbits/s speed=0.0268x elapsed=0:01:04.83    \nframe=   89 fps=1.4 q=47.0 size=       1KiB time=00:00:01.76 bitrate=   2.6kbits/s speed=0.0269x elapsed=0:01:05.35    \nframe=   90 fps=1.4 q=50.0 size=       1KiB time=00:00:01.78 bitrate=   2.5kbits/s speed=0.027x elapsed=0:01:05.86    \nframe=   92 fps=1.4 q=50.0 size=       1KiB time=00:00:01.82 bitrate=   2.5kbits/s speed=0.0274x elapsed=0:01:06.37    \nframe=   92 fps=1.4 q=50.0 size=       1KiB time=00:00:01.82 bitrate=   2.5kbits/s speed=0.0272x elapsed=0:01:06.89    \nframe=   93 fps=1.4 q=52.0 size=       1KiB time=00:00:01.84 bitrate=   2.4kbits/s speed=0.0273x elapsed=0:01:07.40    \nframe=   94 fps=1.4 q=49.0 size=       1KiB time=00:00:01.86 bitrate=   2.4kbits/s speed=0.0274x elapsed=0:01:07.92    \nframe=   96 fps=1.4 q=49.0 size=       1KiB time=00:00:01.90 bitrate=   2.4kbits/s speed=0.0278x elapsed=0:01:08.43    \nframe=   96 fps=1.4 q=49.0 size=       1KiB time=00:00:01.90 bitrate=   2.4kbits/s speed=0.0275x elapsed=0:01:09.03    \nframe=   97 fps=1.4 q=34.0 size=       1KiB time=00:00:01.92 bitrate=   2.3kbits/s speed=0.0276x elapsed=0:01:09.54    \nframe=   99 fps=1.4 q=52.0 size=       1KiB time=00:00:01.96 bitrate=   2.3kbits/s speed=0.028x elapsed=0:01:10.08    \nframe=   99 fps=1.4 q=52.0 size=       1KiB time=00:00:01.96 bitrate=   2.3kbits/s speed=0.0278x elapsed=0:01:10.60    \nframe=  100 fps=1.4 q=51.0 size=       1KiB time=00:00:01.98 bitrate=   2.3kbits/s speed=0.0278x elapsed=0:01:11.14    \nframe=  102 fps=1.4 q=51.0 size=       1KiB time=00:00:02.02 bitrate=   2.2kbits/s speed=0.0282x elapsed=0:01:11.69    \nframe=  102 fps=1.4 q=51.0 size=       1KiB time=00:00:02.02 bitrate=   2.2kbits/s speed=0.028x elapsed=0:01:12.20    \nframe=  103 fps=1.4 q=53.0 size=       1KiB time=00:00:02.04 bitrate=   2.2kbits/s speed=0.028x elapsed=0:01:12.77    \nframe=  103 fps=1.4 q=53.0 size=       1KiB time=00:00:02.04 bitrate=   2.2kbits/s speed=0.0278x elapsed=0:01:13.39    \nframe=  104 fps=1.4 q=47.0 size=       1KiB time=00:00:02.06 bitrate=   2.2kbits/s speed=0.0278x elapsed=0:01:14.03    \nframe=  104 fps=1.4 q=47.0 size=       1KiB time=00:00:02.06 bitrate=   2.2kbits/s speed=0.0276x elapsed=0:01:14.69    \nframe=  105 fps=1.4 q=46.0 size=       1KiB time=00:00:02.08 bitrate=   2.2kbits/s speed=0.0277x elapsed=0:01:15.20    \nframe=  106 fps=1.4 q=51.0 size=       1KiB time=00:00:02.10 bitrate=   2.1kbits/s speed=0.0277x elapsed=0:01:15.72    \nframe=  107 fps=1.4 q=52.0 size=       1KiB time=00:00:02.12 bitrate=   2.1kbits/s speed=0.0278x elapsed=0:01:16.24    \nframe=  108 fps=1.4 q=48.0 size=       1KiB time=00:00:02.14 bitrate=   2.1kbits/s speed=0.0278x elapsed=0:01:17.03    \nframe=  109 fps=1.4 q=50.0 size=       1KiB time=00:00:02.16 bitrate=   2.1kbits/s speed=0.0278x elapsed=0:01:17.68    \nframe=  111 fps=1.4 q=52.0 size=       1KiB time=00:00:02.20 bitrate=   2.0kbits/s speed=0.0281x elapsed=0:01:18.20    \nframe=  113 fps=1.4 q=33.0 size=       1KiB time=00:00:02.24 bitrate=   2.0kbits/s speed=0.0285x elapsed=0:01:18.72    \nframe=  114 fps=1.4 q=51.0 size=       1KiB time=00:00:02.26 bitrate=   2.0kbits/s speed=0.0285x elapsed=0:01:19.23    \nframe=  117 fps=1.5 q=51.0 size=       1KiB time=00:00:02.32 bitrate=   1.9kbits/s speed=0.0291x elapsed=0:01:19.74    \nframe=  118 fps=1.5 q=51.0 size=       1KiB time=00:00:02.34 bitrate=   1.9kbits/s speed=0.0292x elapsed=0:01:20.26    \nframe=  118 fps=1.5 q=51.0 size=       1KiB time=00:00:02.34 bitrate=   1.9kbits/s speed=0.029x elapsed=0:01:20.77    \nframe=  119 fps=1.5 q=52.0 size=       1KiB time=00:00:02.36 bitrate=   1.9kbits/s speed=0.029x elapsed=0:01:21.29    \nframe=  120 fps=1.5 q=42.0 size=       1KiB time=00:00:02.38 bitrate=   1.9kbits/s speed=0.0291x elapsed=0:01:21.81    \nframe=  121 fps=1.5 q=47.0 size=       1KiB time=00:00:02.40 bitrate=   1.9kbits/s speed=0.0292x elapsed=0:01:22.33    \nframe=  122 fps=1.5 q=50.0 size=       1KiB time=00:00:02.42 bitrate=   1.9kbits/s speed=0.0292x elapsed=0:01:22.85    \nframe=  123 fps=1.5 q=50.0 size=       1KiB time=00:00:02.44 bitrate=   1.8kbits/s speed=0.0293x elapsed=0:01:23.36    \nframe=  124 fps=1.5 q=50.0 size=       1KiB time=00:00:02.46 bitrate=   1.8kbits/s speed=0.0293x elapsed=0:01:23.87    \nframe=  125 fps=1.5 q=49.0 size=       1KiB time=00:00:02.48 bitrate=   1.8kbits/s speed=0.0294x elapsed=0:01:24.38    \nframe=  127 fps=1.5 q=50.0 size=       1KiB time=00:00:02.52 bitrate=   1.8kbits/s speed=0.0297x elapsed=0:01:24.90    \nframe=  128 fps=1.5 q=50.0 size=       1KiB time=00:00:02.54 bitrate=   1.8kbits/s speed=0.0297x elapsed=0:01:25.42    \nframe=  129 fps=1.5 q=35.0 size=       1KiB time=00:00:02.56 bitrate=   1.8kbits/s speed=0.0298x elapsed=0:01:25.93    \nframe=  130 fps=1.5 q=50.0 size=       1KiB time=00:00:02.58 bitrate=   1.7kbits/s speed=0.0298x elapsed=0:01:26.46    \nframe=  130 fps=1.5 q=50.0 size=       1KiB time=00:00:02.58 bitrate=   1.7kbits/s speed=0.0297x elapsed=0:01:26.97    \nframe=  133 fps=1.5 q=51.0 size=       1KiB time=00:00:02.64 bitrate=   1.7kbits/s speed=0.0302x elapsed=0:01:27.49    \nframe=  134 fps=1.5 q=51.0 size=       1KiB time=00:00:02.66 bitrate=   1.7kbits/s speed=0.0302x elapsed=0:01:28.00    \nframe=  134 fps=1.5 q=51.0 size=       1KiB time=00:00:02.66 bitrate=   1.7kbits/s speed=0.0301x elapsed=0:01:28.51    \nframe=  135 fps=1.5 q=51.0 size=       1KiB time=00:00:02.68 bitrate=   1.7kbits/s speed=0.0301x elapsed=0:01:29.03    \nframe=  137 fps=1.5 q=45.0 size=       1KiB time=00:00:02.72 bitrate=   1.7kbits/s speed=0.0304x elapsed=0:01:29.54    \nframe=  139 fps=1.5 q=52.0 size=       1KiB time=00:00:02.76 bitrate=   1.6kbits/s speed=0.0306x elapsed=0:01:30.06    \nframe=  140 fps=1.5 q=52.0 size=       1KiB time=00:00:02.78 bitrate=   1.6kbits/s speed=0.0307x elapsed=0:01:30.58    \nframe=  141 fps=1.5 q=49.0 size=       1KiB time=00:00:02.80 bitrate=   1.6kbits/s speed=0.0307x elapsed=0:01:31.11    \nframe=  143 fps=1.6 q=52.0 size=       1KiB time=00:00:02.84 bitrate=   1.6kbits/s speed=0.031x elapsed=0:01:31.62    \nframe=  144 fps=1.6 q=52.0 size=       1KiB time=00:00:02.86 bitrate=   1.6kbits/s speed=0.031x elapsed=0:01:32.15    \nframe=  144 fps=1.6 q=52.0 size=       1KiB time=00:00:02.86 bitrate=   1.6kbits/s speed=0.0309x elapsed=0:01:32.65    \nframe=  145 fps=1.6 q=34.0 size=       1KiB time=00:00:02.88 bitrate=   1.6kbits/s speed=0.0309x elapsed=0:01:33.17    \nframe=  147 fps=1.6 q=52.0 size=       1KiB time=00:00:02.92 bitrate=   1.5kbits/s speed=0.0312x elapsed=0:01:33.68    \nframe=  149 fps=1.6 q=51.0 size=       1KiB time=00:00:02.96 bitrate=   1.5kbits/s speed=0.0314x elapsed=0:01:34.21    \nframe=  150 fps=1.6 q=52.0 size=       1KiB time=00:00:02.98 bitrate=   1.5kbits/s speed=0.0315x elapsed=0:01:34.71    \nframe=  150 fps=1.6 q=52.0 size=       1KiB time=00:00:02.98 bitrate=   1.5kbits/s speed=0.0313x elapsed=0:01:35.24    \nframe=  151 fps=1.6 q=52.0 size=       1KiB time=00:00:03.00 bitrate=   1.5kbits/s speed=0.0313x elapsed=0:01:35.74    \nframe=  152 fps=1.6 q=52.0 size=       1KiB time=00:00:03.02 bitrate=   1.5kbits/s speed=0.0314x elapsed=0:01:36.26    \nframe=  154 fps=1.6 q=51.0 size=       1KiB time=00:00:03.06 bitrate=   1.5kbits/s speed=0.0316x elapsed=0:01:36.77    \nframe=  155 fps=1.6 q=51.0 size=       1KiB time=00:00:03.08 bitrate=   1.5kbits/s speed=0.0317x elapsed=0:01:37.30    \nframe=  156 fps=1.6 q=51.0 size=       1KiB time=00:00:03.10 bitrate=   1.5kbits/s speed=0.0317x elapsed=0:01:37.81    \nframe=  157 fps=1.6 q=49.0 size=       1KiB time=00:00:03.12 bitrate=   1.4kbits/s speed=0.0317x elapsed=0:01:38.33    \nframe=  158 fps=1.6 q=52.0 size=       1KiB time=00:00:03.14 bitrate=   1.4kbits/s speed=0.0318x elapsed=0:01:38.84    \nframe=  159 fps=1.6 q=51.0 size=       1KiB time=00:00:03.16 bitrate=   1.4kbits/s speed=0.0318x elapsed=0:01:39.36    \nframe=  162 fps=1.6 q=52.0 size=       1KiB time=00:00:03.22 bitrate=   1.4kbits/s speed=0.0322x elapsed=0:01:39.87    \nframe=  163 fps=1.6 q=52.0 size=       1KiB time=00:00:03.24 bitrate=   1.4kbits/s speed=0.0323x elapsed=0:01:40.39    \nframe=  165 fps=1.6 q=51.0 size=       1KiB time=00:00:03.28 bitrate=   1.4kbits/s speed=0.0325x elapsed=0:01:40.90    \nframe=  166 fps=1.6 q=52.0 size=       1KiB time=00:00:03.30 bitrate=   1.4kbits/s speed=0.0325x elapsed=0:01:41.42    \nframe=  166 fps=1.6 q=52.0 size=       1KiB time=00:00:03.30 bitrate=   1.4kbits/s speed=0.0324x elapsed=0:01:41.94    \nframe=  167 fps=1.6 q=51.0 size=       1KiB time=00:00:03.32 bitrate=   1.4kbits/s speed=0.0324x elapsed=0:01:42.45    \nframe=  168 fps=1.6 q=52.0 size=       1KiB time=00:00:03.34 bitrate=   1.3kbits/s speed=0.0324x elapsed=0:01:42.96    \nframe=  170 fps=1.6 q=52.0 size=       1KiB time=00:00:03.38 bitrate=   1.3kbits/s speed=0.0327x elapsed=0:01:43.48    \nframe=  171 fps=1.6 q=52.0 size=       1KiB time=00:00:03.40 bitrate=   1.3kbits/s speed=0.0327x elapsed=0:01:44.00    \nframe=  173 fps=1.7 q=50.0 size=       1KiB time=00:00:03.44 bitrate=   1.3kbits/s speed=0.0329x elapsed=0:01:44.52    \nframe=  175 fps=1.7 q=49.0 size=       1KiB time=00:00:03.48 bitrate=   1.3kbits/s speed=0.033x elapsed=0:01:45.33    \nframe=  177 fps=1.7 q=33.0 size=       1KiB time=00:00:03.52 bitrate=   1.3kbits/s speed=0.0332x elapsed=0:01:46.03    \nframe=  178 fps=1.7 q=52.0 size=       1KiB time=00:00:03.54 bitrate=   1.3kbits/s speed=0.0332x elapsed=0:01:46.67    \nframe=  180 fps=1.7 q=52.0 size=       1KiB time=00:00:03.58 bitrate=   1.3kbits/s speed=0.0333x elapsed=0:01:47.45    \nframe=  182 fps=1.7 q=52.0 size=       1KiB time=00:00:03.62 bitrate=   1.2kbits/s speed=0.0335x elapsed=0:01:47.97    \nframe=  182 fps=1.7 q=52.0 size=       1KiB time=00:00:03.62 bitrate=   1.2kbits/s speed=0.0334x elapsed=0:01:48.48    \nframe=  183 fps=1.7 q=52.0 size=       1KiB time=00:00:03.64 bitrate=   1.2kbits/s speed=0.0334x elapsed=0:01:48.99    \nframe=  184 fps=1.7 q=44.0 size=       1KiB time=00:00:03.66 bitrate=   1.2kbits/s speed=0.0334x elapsed=0:01:49.52    \nframe=  185 fps=1.7 q=45.0 size=       1KiB time=00:00:03.68 bitrate=   1.2kbits/s speed=0.0334x elapsed=0:01:50.03    \nframe=  187 fps=1.7 q=51.0 size=       1KiB time=00:00:03.72 bitrate=   1.2kbits/s speed=0.0337x elapsed=0:01:50.54    \nframe=  189 fps=1.7 q=50.0 size=       1KiB time=00:00:03.76 bitrate=   1.2kbits/s speed=0.0339x elapsed=0:01:51.06    \nframe=  191 fps=1.7 q=51.0 size=       1KiB time=00:00:03.80 bitrate=   1.2kbits/s speed=0.0341x elapsed=0:01:51.57    \nframe=  193 fps=1.7 q=35.0 size=       1KiB time=00:00:03.84 bitrate=   1.2kbits/s speed=0.0343x elapsed=0:01:52.09    \nframe=  194 fps=1.7 q=53.0 size=       1KiB time=00:00:03.86 bitrate=   1.2kbits/s speed=0.0343x elapsed=0:01:52.61    \nframe=  196 fps=1.7 q=53.0 size=       1KiB time=00:00:03.90 bitrate=   1.2kbits/s speed=0.0345x elapsed=0:01:53.12    \nframe=  198 fps=1.7 q=53.0 size=       1KiB time=00:00:03.94 bitrate=   1.1kbits/s speed=0.0347x elapsed=0:01:53.64    \nframe=  198 fps=1.7 q=53.0 size=       1KiB time=00:00:03.94 bitrate=   1.1kbits/s speed=0.0345x elapsed=0:01:54.16    \nframe=  199 fps=1.7 q=52.0 size=       1KiB time=00:00:03.96 bitrate=   1.1kbits/s speed=0.0345x elapsed=0:01:54.67    \nframe=  199 fps=1.7 q=52.0 size=       1KiB time=00:00:03.96 bitrate=   1.1kbits/s speed=0.0344x elapsed=0:01:55.18    \nframe=  200 fps=1.7 q=53.0 size=       1KiB time=00:00:03.98 bitrate=   1.1kbits/s speed=0.0344x elapsed=0:01:55.71    \nframe=  203 fps=1.7 q=53.0 size=       1KiB time=00:00:04.04 bitrate=   1.1kbits/s speed=0.0348x elapsed=0:01:56.22    \nframe=  204 fps=1.7 q=54.0 size=       1KiB time=00:00:04.06 bitrate=   1.1kbits/s speed=0.0348x elapsed=0:01:56.73    \nframe=  205 fps=1.7 q=51.0 size=       1KiB time=00:00:04.08 bitrate=   1.1kbits/s speed=0.0348x elapsed=0:01:57.25    \nframe=  207 fps=1.8 q=51.0 size=       1KiB time=00:00:04.12 bitrate=   1.1kbits/s speed=0.035x elapsed=0:01:57.77    \nframe=  207 fps=1.7 q=51.0 size=       1KiB time=00:00:04.12 bitrate=   1.1kbits/s speed=0.0348x elapsed=0:01:58.28    \nframe=  208 fps=1.8 q=53.0 size=       1KiB time=00:00:04.14 bitrate=   1.1kbits/s speed=0.0349x elapsed=0:01:58.79    \nframe=  210 fps=1.8 q=54.0 size=       1KiB time=00:00:04.18 bitrate=   1.1kbits/s speed=0.035x elapsed=0:01:59.31    \nframe=  213 fps=1.8 q=51.0 size=       1KiB time=00:00:04.24 bitrate=   1.1kbits/s speed=0.0354x elapsed=0:01:59.82    \nframe=  214 fps=1.8 q=54.0 size=       1KiB time=00:00:04.26 bitrate=   1.1kbits/s speed=0.0354x elapsed=0:02:00.35    \nframe=  215 fps=1.8 q=53.0 size=       1KiB time=00:00:04.28 bitrate=   1.1kbits/s speed=0.0354x elapsed=0:02:00.86    \nframe=  217 fps=1.8 q=46.0 size=       1KiB time=00:00:04.32 bitrate=   1.0kbits/s speed=0.0356x elapsed=0:02:01.37    \nframe=  220 fps=1.8 q=55.0 size=       1KiB time=00:00:04.38 bitrate=   1.0kbits/s speed=0.0359x elapsed=0:02:01.89    \nframe=  222 fps=1.8 q=55.0 size=       1KiB time=00:00:04.42 bitrate=   1.0kbits/s speed=0.0361x elapsed=0:02:02.40    \nframe=  223 fps=1.8 q=53.0 size=       1KiB time=00:00:04.44 bitrate=   1.0kbits/s speed=0.0361x elapsed=0:02:02.93    \nframe=  226 fps=1.8 q=55.0 size=       1KiB time=00:00:04.50 bitrate=   1.0kbits/s speed=0.0364x elapsed=0:02:03.47    \nframe=  227 fps=1.8 q=54.0 size=       1KiB time=00:00:04.52 bitrate=   1.0kbits/s speed=0.0364x elapsed=0:02:04.12    \nframe=  229 fps=1.8 q=52.0 size=       1KiB time=00:00:04.56 bitrate=   1.0kbits/s speed=0.0365x elapsed=0:02:04.77    \nframe=  229 fps=1.8 q=52.0 size=       1KiB time=00:00:04.56 bitrate=   1.0kbits/s speed=0.0364x elapsed=0:02:05.28    \nframe=  231 fps=1.8 q=54.0 size=       1KiB time=00:00:04.60 bitrate=   1.0kbits/s speed=0.0366x elapsed=0:02:05.84    \nframe=  231 fps=1.8 q=54.0 size=       1KiB time=00:00:04.60 bitrate=   1.0kbits/s speed=0.0364x elapsed=0:02:06.49    \nframe=  232 fps=1.8 q=55.0 size=       1KiB time=00:00:04.62 bitrate=   1.0kbits/s speed=0.0364x elapsed=0:02:07.05    \nframe=  233 fps=1.8 q=48.0 size=       1KiB time=00:00:04.64 bitrate=   1.0kbits/s speed=0.0364x elapsed=0:02:07.62    \nframe=  237 fps=1.8 q=52.0 size=       1KiB time=00:00:04.70 bitrate=   1.0kbits/s speed=0.0367x elapsed=0:02:08.16    \nframe=  239 fps=1.9 q=54.0 size=       1KiB time=00:00:04.76 bitrate=   0.9kbits/s speed=0.037x elapsed=0:02:08.68    \nframe=  240 fps=1.9 q=55.0 size=       1KiB time=00:00:04.78 bitrate=   0.9kbits/s speed=0.037x elapsed=0:02:09.20    \nframe=  241 fps=1.9 q=37.0 size=       1KiB time=00:00:04.80 bitrate=   0.9kbits/s speed=0.037x elapsed=0:02:09.73    \nframe=  242 fps=1.9 q=55.0 size=       1KiB time=00:00:04.82 bitrate=   0.9kbits/s speed=0.037x elapsed=0:02:10.26    \nframe=  243 fps=1.9 q=54.0 size=       1KiB time=00:00:04.84 bitrate=   0.9kbits/s speed=0.037x elapsed=0:02:10.78    \nframe=  245 fps=1.9 q=52.0 size=       1KiB time=00:00:04.88 bitrate=   0.9kbits/s speed=0.0372x elapsed=0:02:11.30    \nframe=  247 fps=1.9 q=54.0 size=       1KiB time=00:00:04.92 bitrate=   0.9kbits/s speed=0.0373x elapsed=0:02:11.84    \nframe=  249 fps=1.9 q=47.0 size=       1KiB time=00:00:04.96 bitrate=   0.9kbits/s speed=0.0375x elapsed=0:02:12.39    \nframe=  250 fps=1.9 q=55.0 size=       1KiB time=00:00:04.98 bitrate=   0.9kbits/s speed=0.0374x elapsed=0:02:13.03    \nframe=  253 fps=1.9 q=52.0 size=     768KiB time=00:00:05.04 bitrate=1248.3kbits/s speed=0.0377x elapsed=0:02:13.59    \nframe=  255 fps=1.9 q=54.0 size=     768KiB time=00:00:05.08 bitrate=1238.5kbits/s speed=0.0379x elapsed=0:02:14.18    \nframe=  258 fps=1.9 q=55.0 size=     768KiB time=00:00:05.14 bitrate=1224.0kbits/s speed=0.0381x elapsed=0:02:14.74    \nframe=  260 fps=1.9 q=55.0 size=     768KiB time=00:00:05.18 bitrate=1214.6kbits/s speed=0.0383x elapsed=0:02:15.32    \nframe=  261 fps=1.9 q=52.0 size=     768KiB time=00:00:05.20 bitrate=1209.9kbits/s speed=0.0383x elapsed=0:02:15.84    \nframe=  261 fps=1.9 q=52.0 size=     768KiB time=00:00:05.20 bitrate=1209.9kbits/s speed=0.0381x elapsed=0:02:16.38    \nframe=  262 fps=1.9 q=55.0 size=     768KiB time=00:00:05.22 bitrate=1205.3kbits/s speed=0.0381x elapsed=0:02:16.92    \nframe=  262 fps=1.9 q=55.0 size=     768KiB time=00:00:05.22 bitrate=1205.3kbits/s speed=0.038x elapsed=0:02:17.50    \nframe=  265 fps=1.9 q=48.0 size=     768KiB time=00:00:05.28 bitrate=1191.6kbits/s speed=0.0382x elapsed=0:02:18.07    \nframe=  266 fps=1.9 q=55.0 size=     768KiB time=00:00:05.30 bitrate=1187.1kbits/s speed=0.0382x elapsed=0:02:18.66    \nframe=  266 fps=1.9 q=55.0 size=     768KiB time=00:00:05.30 bitrate=1187.1kbits/s speed=0.0381x elapsed=0:02:19.20    \nframe=  269 fps=1.9 q=52.0 size=     768KiB time=00:00:05.36 bitrate=1173.8kbits/s speed=0.0384x elapsed=0:02:19.72    \nframe=  271 fps=1.9 q=51.0 size=     768KiB time=00:00:05.40 bitrate=1165.1kbits/s speed=0.0385x elapsed=0:02:20.29    \nframe=  273 fps=1.9 q=37.0 size=     768KiB time=00:00:05.44 bitrate=1156.5kbits/s speed=0.0386x elapsed=0:02:20.89    \nframe=  275 fps=1.9 q=55.0 size=     768KiB time=00:00:05.48 bitrate=1148.1kbits/s speed=0.0387x elapsed=0:02:21.46    \nframe=  277 fps=2.0 q=53.0 size=     768KiB time=00:00:05.52 bitrate=1139.8kbits/s speed=0.0389x elapsed=0:02:21.99    \nframe=  279 fps=2.0 q=55.0 size=     768KiB time=00:00:05.56 bitrate=1131.6kbits/s speed=0.039x elapsed=0:02:22.51    \nframe=  281 fps=2.0 q=49.0 size=     768KiB time=00:00:05.60 bitrate=1123.5kbits/s speed=0.0392x elapsed=0:02:23.03    \nframe=  282 fps=2.0 q=56.0 size=     768KiB time=00:00:05.62 bitrate=1119.5kbits/s speed=0.0391x elapsed=0:02:23.58    \nframe=  285 fps=2.0 q=53.0 size=     768KiB time=00:00:05.68 bitrate=1107.7kbits/s speed=0.0394x elapsed=0:02:24.16    \nframe=  287 fps=2.0 q=51.0 size=     768KiB time=00:00:05.72 bitrate=1099.9kbits/s speed=0.0395x elapsed=0:02:24.69    \nframe=  290 fps=2.0 q=57.0 size=     768KiB time=00:00:05.78 bitrate=1088.5kbits/s speed=0.0398x elapsed=0:02:25.22    \nframe=  292 fps=2.0 q=57.0 size=     768KiB time=00:00:05.82 bitrate=1081.0kbits/s speed=0.0399x elapsed=0:02:25.77    \nframe=  294 fps=2.0 q=57.0 size=     768KiB time=00:00:05.86 bitrate=1073.6kbits/s speed=0.04x elapsed=0:02:26.32    \nframe=  294 fps=2.0 q=57.0 size=     768KiB time=00:00:05.86 bitrate=1073.6kbits/s speed=0.0399x elapsed=0:02:26.84    \nframe=  297 fps=2.0 q=49.0 size=     768KiB time=00:00:05.90 bitrate=1066.3kbits/s speed=0.04x elapsed=0:02:27.36    \nframe=  299 fps=2.0 q=55.0 size=     768KiB time=00:00:05.96 bitrate=1055.6kbits/s speed=0.0403x elapsed=0:02:28.02    \nframe=  301 fps=2.0 q=52.0 size=     768KiB time=00:00:06.00 bitrate=1048.6kbits/s speed=0.0404x elapsed=0:02:28.57    \nframe=  303 fps=2.0 q=55.0 size=     768KiB time=00:00:06.04 bitrate=1041.6kbits/s speed=0.0405x elapsed=0:02:29.13    \nframe=  306 fps=2.0 q=58.0 size=     768KiB time=00:00:06.10 bitrate=1031.4kbits/s speed=0.0407x elapsed=0:02:29.70    \nframe=  308 fps=2.0 q=58.0 size=     768KiB time=00:00:06.14 bitrate=1024.7kbits/s speed=0.0409x elapsed=0:02:30.29    \nframe=  309 fps=2.0 q=55.0 size=     768KiB time=00:00:06.16 bitrate=1021.3kbits/s speed=0.0408x elapsed=0:02:30.80    \nframe=  310 fps=2.0 q=58.0 size=     768KiB time=00:00:06.18 bitrate=1018.0kbits/s speed=0.0408x elapsed=0:02:31.33    \nframe=  314 fps=2.1 q=58.0 size=     768KiB time=00:00:06.26 bitrate=1005.0kbits/s speed=0.0412x elapsed=0:02:31.86    \nframe=  316 fps=2.1 q=58.0 size=     768KiB time=00:00:06.30 bitrate= 998.6kbits/s speed=0.0413x elapsed=0:02:32.42    \nframe=  317 fps=2.1 q=55.0 size=     768KiB time=00:00:06.32 bitrate= 995.5kbits/s speed=0.0413x elapsed=0:02:32.97    \nframe=  317 fps=2.1 q=55.0 size=     768KiB time=00:00:06.32 bitrate= 995.5kbits/s speed=0.0411x elapsed=0:02:33.59    \nframe=  318 fps=2.1 q=52.0 size=     768KiB time=00:00:06.34 bitrate= 992.3kbits/s speed=0.0411x elapsed=0:02:34.26    \nframe=  319 fps=2.1 q=45.0 size=     768KiB time=00:00:06.36 bitrate= 989.2kbits/s speed=0.041x elapsed=0:02:35.11    \nframe=  322 fps=2.1 q=28.0 size=     768KiB time=00:00:06.40 bitrate= 983.0kbits/s speed=0.041x elapsed=0:02:36.09    \nframe=  325 fps=2.1 q=56.0 size=    1024KiB time=00:00:06.46 bitrate=1298.5kbits/s speed=0.0411x elapsed=0:02:37.06    \nframe=  327 fps=2.1 q=56.0 size=    1024KiB time=00:00:06.50 bitrate=1290.6kbits/s speed=0.0411x elapsed=0:02:38.05    \nframe=  328 fps=2.1 q=55.0 size=    1024KiB time=00:00:06.54 bitrate=1282.7kbits/s speed=0.0411x elapsed=0:02:39.06    \nframe=  331 fps=2.1 q=56.0 size=    1024KiB time=00:00:06.60 bitrate=1271.0kbits/s speed=0.0413x elapsed=0:02:39.82    \nframe=  334 fps=2.1 q=53.0 size=    1024KiB time=00:00:06.66 bitrate=1259.6kbits/s speed=0.0415x elapsed=0:02:40.35    \nframe=  335 fps=2.1 q=55.0 size=    1024KiB time=00:00:06.68 bitrate=1255.8kbits/s speed=0.0415x elapsed=0:02:40.86    \nframe=  336 fps=2.1 q=52.0 size=    1024KiB time=00:00:06.70 bitrate=1252.0kbits/s speed=0.0415x elapsed=0:02:41.37    \nframe=  338 fps=2.1 q=38.0 size=    1024KiB time=00:00:06.74 bitrate=1244.6kbits/s speed=0.0416x elapsed=0:02:41.88    \nframe=  339 fps=2.1 q=56.0 size=    1024KiB time=00:00:06.76 bitrate=1240.9kbits/s speed=0.0416x elapsed=0:02:42.40    \nframe=  341 fps=2.1 q=56.0 size=    1024KiB time=00:00:06.80 bitrate=1233.6kbits/s speed=0.0417x elapsed=0:02:42.92    \nframe=  343 fps=2.1 q=56.0 size=    1024KiB time=00:00:06.84 bitrate=1226.4kbits/s speed=0.0419x elapsed=0:02:43.43    \nframe=  343 fps=2.1 q=56.0 size=    1024KiB time=00:00:06.84 bitrate=1226.4kbits/s speed=0.0417x elapsed=0:02:43.95    \nframe=  344 fps=2.1 q=55.0 size=    1024KiB time=00:00:06.86 bitrate=1222.8kbits/s speed=0.0417x elapsed=0:02:44.46    \nframe=  345 fps=2.1 q=56.0 size=    1024KiB time=00:00:06.88 bitrate=1219.3kbits/s speed=0.0417x elapsed=0:02:44.98    \nframe=  347 fps=2.1 q=56.0 size=    1024KiB time=00:00:06.92 bitrate=1212.2kbits/s speed=0.0418x elapsed=0:02:45.50    \nframe=  348 fps=2.1 q=55.0 size=    1024KiB time=00:00:06.94 bitrate=1208.7kbits/s speed=0.0418x elapsed=0:02:46.01    \nframe=  350 fps=2.1 q=53.0 size=    1024KiB time=00:00:06.98 bitrate=1201.8kbits/s speed=0.0419x elapsed=0:02:46.53    \nframe=  352 fps=2.1 q=55.0 size=    1024KiB time=00:00:07.02 bitrate=1195.0kbits/s speed=0.042x elapsed=0:02:47.04    \nframe=  353 fps=2.1 q=56.0 size=    1024KiB time=00:00:07.04 bitrate=1191.6kbits/s speed=0.042x elapsed=0:02:47.56    \nframe=  355 fps=2.1 q=56.0 size=    1024KiB time=00:00:07.08 bitrate=1184.8kbits/s speed=0.0421x elapsed=0:02:48.07    \nframe=  356 fps=2.1 q=55.0 size=    1024KiB time=00:00:07.10 bitrate=1181.5kbits/s speed=0.0421x elapsed=0:02:48.60    \nframe=  358 fps=2.1 q=53.0 size=    1024KiB time=00:00:07.14 bitrate=1174.9kbits/s speed=0.0422x elapsed=0:02:49.10    \nframe=  359 fps=2.1 q=56.0 size=    1024KiB time=00:00:07.16 bitrate=1171.6kbits/s speed=0.0422x elapsed=0:02:49.63    \nframe=  361 fps=2.1 q=56.0 size=    1024KiB time=00:00:07.20 bitrate=1165.1kbits/s speed=0.0423x elapsed=0:02:50.13    \nframe=  363 fps=2.1 q=56.0 size=    1024KiB time=00:00:07.24 bitrate=1158.6kbits/s speed=0.0424x elapsed=0:02:50.65    \nframe=  365 fps=2.1 q=56.0 size=    1024KiB time=00:00:07.28 bitrate=1152.3kbits/s speed=0.0425x elapsed=0:02:51.17    \nframe=  366 fps=2.1 q=53.0 size=    1024KiB time=00:00:07.30 bitrate=1149.1kbits/s speed=0.0425x elapsed=0:02:51.69    \nframe=  367 fps=2.1 q=56.0 size=    1024KiB time=00:00:07.32 bitrate=1146.0kbits/s speed=0.0425x elapsed=0:02:52.21    \nframe=  367 fps=2.1 q=56.0 size=    1024KiB time=00:00:07.32 bitrate=1146.0kbits/s speed=0.0424x elapsed=0:02:52.72    \nframe=  368 fps=2.1 q=55.0 size=    1024KiB time=00:00:07.34 bitrate=1142.9kbits/s speed=0.0424x elapsed=0:02:53.24    \nframe=  370 fps=2.1 q=38.0 size=    1024KiB time=00:00:07.38 bitrate=1136.7kbits/s speed=0.0425x elapsed=0:02:53.75    \nframe=  371 fps=2.1 q=56.0 size=    1024KiB time=00:00:07.40 bitrate=1133.6kbits/s speed=0.0425x elapsed=0:02:54.26    \nframe=  372 fps=2.1 q=55.0 size=    1024KiB time=00:00:07.42 bitrate=1130.5kbits/s speed=0.0425x elapsed=0:02:54.77    \nframe=  374 fps=2.1 q=52.0 size=    1024KiB time=00:00:07.46 bitrate=1124.5kbits/s speed=0.0426x elapsed=0:02:55.29    \nframe=  376 fps=2.1 q=55.0 size=    1024KiB time=00:00:07.50 bitrate=1118.5kbits/s speed=0.0427x elapsed=0:02:55.80    \nframe=  376 fps=2.1 q=55.0 size=    1024KiB time=00:00:07.50 bitrate=1118.5kbits/s speed=0.0425x elapsed=0:02:56.32    \nframe=  379 fps=2.1 q=56.0 size=    1024KiB time=00:00:07.56 bitrate=1109.6kbits/s speed=0.0428x elapsed=0:02:56.83    \nframe=  380 fps=2.1 q=55.0 size=    1024KiB time=00:00:07.58 bitrate=1106.7kbits/s speed=0.0427x elapsed=0:02:57.36    \nframe=  382 fps=2.1 q=52.0 size=    1024KiB time=00:00:07.62 bitrate=1100.9kbits/s speed=0.0428x elapsed=0:02:57.87    \nframe=  384 fps=2.2 q=53.0 size=    1024KiB time=00:00:07.66 bitrate=1095.1kbits/s speed=0.0429x elapsed=0:02:58.38    \nframe=  387 fps=2.2 q=56.0 size=    1024KiB time=00:00:07.72 bitrate=1086.6kbits/s speed=0.0431x elapsed=0:02:58.91    \nframe=  391 fps=2.2 q=56.0 size=    1024KiB time=00:00:07.80 bitrate=1075.5kbits/s speed=0.0435x elapsed=0:02:59.44    \nframe=  392 fps=2.2 q=55.0 size=    1024KiB time=00:00:07.82 bitrate=1072.7kbits/s speed=0.0435x elapsed=0:02:59.95    \nframe=  393 fps=2.2 q=56.0 size=    1024KiB time=00:00:07.84 bitrate=1070.0kbits/s speed=0.0434x elapsed=0:03:00.47    \nframe=  395 fps=2.2 q=56.0 size=    1024KiB time=00:00:07.88 bitrate=1064.5kbits/s speed=0.0435x elapsed=0:03:00.98    \nframe=  399 fps=2.2 q=56.0 size=    1024KiB time=00:00:07.96 bitrate=1053.8kbits/s speed=0.0439x elapsed=0:03:01.50    \nframe=  400 fps=2.2 q=55.0 size=    1024KiB time=00:00:07.98 bitrate=1051.2kbits/s speed=0.0438x elapsed=0:03:02.02    \nframe=  401 fps=2.2 q=53.0 size=    1024KiB time=00:00:08.00 bitrate=1048.6kbits/s speed=0.0438x elapsed=0:03:02.54    \nframe=  406 fps=2.2 q=53.0 size=    1024KiB time=00:00:08.10 bitrate=1035.6kbits/s speed=0.0442x elapsed=0:03:03.05    \nframe=  406 fps=2.2 q=53.0 size=    1024KiB time=00:00:08.10 bitrate=1035.6kbits/s speed=0.0441x elapsed=0:03:03.56    \nframe=  408 fps=2.2 q=55.0 size=    1024KiB time=00:00:08.14 bitrate=1030.5kbits/s speed=0.0442x elapsed=0:03:04.08    \nframe=  410 fps=2.2 q=48.0 size=    1024KiB time=00:00:08.18 bitrate=1025.5kbits/s speed=0.0443x elapsed=0:03:04.59    \nframe=  410 fps=2.2 q=48.0 size=    1024KiB time=00:00:08.18 bitrate=1025.5kbits/s speed=0.0442x elapsed=0:03:05.11    \nframe=  410 fps=2.2 q=48.0 size=    1024KiB time=00:00:08.18 bitrate=1025.5kbits/s speed=0.0441x elapsed=0:03:05.62    \nframe=  414 fps=2.2 q=51.0 size=    1024KiB time=00:00:08.26 bitrate=1015.6kbits/s speed=0.0444x elapsed=0:03:06.14    \nframe=  418 fps=2.2 q=38.0 size=    1024KiB time=00:00:08.34 bitrate=1005.8kbits/s speed=0.0447x elapsed=0:03:06.65    \nframe=  418 fps=2.2 q=38.0 size=    1024KiB time=00:00:08.34 bitrate=1005.8kbits/s speed=0.0446x elapsed=0:03:07.17    \nframe=  418 fps=2.2 q=38.0 size=    1024KiB time=00:00:08.34 bitrate=1005.8kbits/s speed=0.0444x elapsed=0:03:07.69    \nframe=  420 fps=2.2 q=55.0 size=    1024KiB time=00:00:08.38 bitrate=1001.0kbits/s speed=0.0445x elapsed=0:03:08.20    \nframe=  422 fps=2.2 q=53.0 size=    1024KiB time=00:00:08.42 bitrate= 996.3kbits/s speed=0.0446x elapsed=0:03:08.72    \nframe=  422 fps=2.2 q=53.0 size=    1024KiB time=00:00:08.42 bitrate= 996.3kbits/s speed=0.0445x elapsed=0:03:09.24    \nframe=  424 fps=2.2 q=55.0 size=    1024KiB time=00:00:08.46 bitrate= 991.6kbits/s speed=0.0446x elapsed=0:03:09.74    \nframe=  426 fps=2.2 q=48.0 size=    1024KiB time=00:00:08.50 bitrate= 986.9kbits/s speed=0.0447x elapsed=0:03:10.26    \nframe=  426 fps=2.2 q=48.0 size=    1024KiB time=00:00:08.50 bitrate= 986.9kbits/s speed=0.0446x elapsed=0:03:10.78    \nframe=  426 fps=2.2 q=48.0 size=    1024KiB time=00:00:08.50 bitrate= 986.9kbits/s speed=0.0444x elapsed=0:03:11.30    \nframe=  426 fps=2.2 q=48.0 size=    1024KiB time=00:00:08.50 bitrate= 986.9kbits/s speed=0.0443x elapsed=0:03:11.81    \nframe=  430 fps=2.2 q=53.0 size=    1024KiB time=00:00:08.58 bitrate= 977.7kbits/s speed=0.0446x elapsed=0:03:12.33    \nframe=  430 fps=2.2 q=53.0 size=    1024KiB time=00:00:08.58 bitrate= 977.7kbits/s speed=0.0445x elapsed=0:03:12.84    \nframe=  434 fps=2.2 q=38.0 size=    1024KiB time=00:00:08.66 bitrate= 968.7kbits/s speed=0.0448x elapsed=0:03:13.36    \nframe=  434 fps=2.2 q=38.0 size=    1024KiB time=00:00:08.66 bitrate= 968.7kbits/s speed=0.0447x elapsed=0:03:13.87    \nframe=  434 fps=2.2 q=38.0 size=    1024KiB time=00:00:08.66 bitrate= 968.7kbits/s speed=0.0446x elapsed=0:03:14.38    \nframe=  438 fps=2.2 q=52.0 size=    1024KiB time=00:00:08.74 bitrate= 959.8kbits/s speed=0.0448x elapsed=0:03:14.90    \nframe=  438 fps=2.2 q=52.0 size=    1024KiB time=00:00:08.74 bitrate= 959.8kbits/s speed=0.0447x elapsed=0:03:15.42    \nframe=  442 fps=2.3 q=47.0 size=    1024KiB time=00:00:08.82 bitrate= 951.1kbits/s speed=0.045x elapsed=0:03:15.93    \nframe=  442 fps=2.2 q=47.0 size=    1024KiB time=00:00:08.82 bitrate= 951.1kbits/s speed=0.0449x elapsed=0:03:16.46    \nframe=  442 fps=2.2 q=47.0 size=    1024KiB time=00:00:08.82 bitrate= 951.1kbits/s speed=0.0448x elapsed=0:03:16.97    \nframe=  446 fps=2.3 q=52.0 size=    1024KiB time=00:00:08.90 bitrate= 942.5kbits/s speed=0.0451x elapsed=0:03:17.49    \nframe=  446 fps=2.3 q=52.0 size=    1024KiB time=00:00:08.90 bitrate= 942.5kbits/s speed=0.0449x elapsed=0:03:18.00    \nframe=  450 fps=2.3 q=37.0 size=    1024KiB time=00:00:08.98 bitrate= 934.1kbits/s speed=0.0452x elapsed=0:03:18.60    \nframe=  450 fps=2.3 q=37.0 size=    1024KiB time=00:00:08.98 bitrate= 934.1kbits/s speed=0.0451x elapsed=0:03:19.14    \nframe=  450 fps=2.3 q=37.0 size=    1024KiB time=00:00:08.98 bitrate= 934.1kbits/s speed=0.045x elapsed=0:03:19.74    \nframe=  450 fps=2.2 q=37.0 size=    1024KiB time=00:00:08.98 bitrate= 934.1kbits/s speed=0.0448x elapsed=0:03:20.26    \nframe=  454 fps=2.3 q=53.0 size=    1024KiB time=00:00:09.06 bitrate= 925.9kbits/s speed=0.0451x elapsed=0:03:20.79    \nframe=  454 fps=2.3 q=53.0 size=    1024KiB time=00:00:09.06 bitrate= 925.9kbits/s speed=0.045x elapsed=0:03:21.48    \nframe=  458 fps=2.3 q=48.0 size=    1024KiB time=00:00:09.14 bitrate= 917.8kbits/s speed=0.0452x elapsed=0:03:22.10    \nframe=  458 fps=2.3 q=48.0 size=    1024KiB time=00:00:09.14 bitrate= 917.8kbits/s speed=0.0451x elapsed=0:03:22.74    \nframe=  458 fps=2.3 q=48.0 size=    1024KiB time=00:00:09.14 bitrate= 917.8kbits/s speed=0.045x elapsed=0:03:23.31    \nframe=  462 fps=2.3 q=52.0 size=    1024KiB time=00:00:09.22 bitrate= 909.8kbits/s speed=0.0452x elapsed=0:03:23.88    \nframe=  462 fps=2.3 q=52.0 size=    1024KiB time=00:00:09.22 bitrate= 909.8kbits/s speed=0.0451x elapsed=0:03:24.40    \nframe=  466 fps=2.3 q=38.0 size=    1024KiB time=00:00:09.30 bitrate= 902.0kbits/s speed=0.0454x elapsed=0:03:24.96    \nframe=  466 fps=2.3 q=38.0 size=    1024KiB time=00:00:09.30 bitrate= 902.0kbits/s speed=0.0453x elapsed=0:03:25.48    \nframe=  466 fps=2.3 q=38.0 size=    1024KiB time=00:00:09.30 bitrate= 902.0kbits/s speed=0.0451x elapsed=0:03:26.01    \nframe=  470 fps=2.3 q=52.0 size=    1024KiB time=00:00:09.38 bitrate= 894.3kbits/s speed=0.0454x elapsed=0:03:26.58    \nframe=  472 fps=2.3 q=55.0 size=    1024KiB time=00:00:09.42 bitrate= 890.5kbits/s speed=0.0455x elapsed=0:03:27.11    \nframe=  474 fps=2.3 q=47.0 size=    1024KiB time=00:00:09.46 bitrate= 886.7kbits/s speed=0.0456x elapsed=0:03:27.68    \nframe=  474 fps=2.3 q=47.0 size=    1024KiB time=00:00:09.46 bitrate= 886.7kbits/s speed=0.0454x elapsed=0:03:28.21    \nframe=  474 fps=2.3 q=47.0 size=    1024KiB time=00:00:09.46 bitrate= 886.7kbits/s speed=0.0453x elapsed=0:03:28.83    \nframe=  478 fps=2.3 q=51.0 size=    1024KiB time=00:00:09.54 bitrate= 879.3kbits/s speed=0.0456x elapsed=0:03:29.34    \nframe=  478 fps=2.3 q=51.0 size=    1024KiB time=00:00:09.54 bitrate= 879.3kbits/s speed=0.0455x elapsed=0:03:29.86    \nframe=  482 fps=2.3 q=37.0 size=    1024KiB time=00:00:09.58 bitrate= 875.6kbits/s speed=0.0455x elapsed=0:03:30.39    \nframe=  482 fps=2.3 q=37.0 size=    1024KiB time=00:00:09.62 bitrate= 872.0kbits/s speed=0.0456x elapsed=0:03:30.95    \nframe=  482 fps=2.3 q=37.0 size=    1024KiB time=00:00:09.62 bitrate= 872.0kbits/s speed=0.0455x elapsed=0:03:31.48    \nframe=  486 fps=2.3 q=53.0 size=    1024KiB time=00:00:09.70 bitrate= 864.8kbits/s speed=0.0457x elapsed=0:03:32.02    \nframe=  486 fps=2.3 q=53.0 size=    1024KiB time=00:00:09.70 bitrate= 864.8kbits/s speed=0.0456x elapsed=0:03:32.58    \nframe=  488 fps=2.3 q=55.0 size=    1024KiB time=00:00:09.74 bitrate= 861.3kbits/s speed=0.0457x elapsed=0:03:33.11    \nframe=  490 fps=2.3 q=49.0 size=    1024KiB time=00:00:09.78 bitrate= 857.7kbits/s speed=0.0458x elapsed=0:03:33.63    \nframe=  490 fps=2.3 q=49.0 size=    1024KiB time=00:00:09.78 bitrate= 857.7kbits/s speed=0.0457x elapsed=0:03:34.16    \nframe=  492 fps=2.3 q=57.0 size=    1024KiB time=00:00:09.82 bitrate= 854.2kbits/s speed=0.0457x elapsed=0:03:34.69    \nframe=  496 fps=2.3 q=57.0 size=    1024KiB time=00:00:09.86 bitrate= 850.8kbits/s speed=0.0458x elapsed=0:03:35.21    \n[out#0/matroska @ 0000026e50828ec0] video:1739KiB audio:0KiB subtitle:0KiB other streams:0KiB global headers:0KiB muxing overhead: 0.165236%\nframe=  500 fps=2.3 q=52.0 Lsize=    1742KiB time=00:00:09.98 bitrate=1430.1kbits/s speed=0.0463x elapsed=0:03:35.38    \n",
  "seconds": 217.0696942806244,
  "probe_out": {}
}